<svg xmlns="http://www.w3.org/2000/svg" viewBox="0 0 96.7 94.8"><defs><style>.cls-1{fill:#1a1a1a;}.cls-2{fill:#740c10;}</style></defs><title>Asset 1</title><g id="Layer_2" data-name="Layer 2"><g id="Layer_1-2" data-name="Layer 1"><path class="cls-1" d="M96.7,47.4C96.7,24.5,81.6,5.3,59.6.1V6.6c19,5,31,21.4,31,40.9s-12,35.9-31,40.9v6.3C81.6,89.5,96.7,70.3,96.7,47.4Z"/><path class="cls-1" d="M6.3,47.5c0-19.6,11.3-36.1,31.3-41V0C13.6,5,0,24.3,0,47.4S13.6,89.8,37.6,94.8V88.4C17.6,83.5,6.3,67,6.3,47.5Z"/><path class="cls-2" d="M61.7,31.7l1.6,7.6L60.2,57.6,54,69.9l-2.3,1.7,3.9-9.1a22.4,22.4,0,0,0,1.1-3.4l2.2-6.6a5.08,5.08,0,0,0,.3-1.7l.3-4.9Z"/><polygon class="cls-2" points="56.3 27.8 57.7 36.3 53.9 57.1 47.2 71.3 44.8 73.3 48.5 62.3 53.6 43.8 56.3 27.8"/><path class="cls-2" d="M50.5,17.2l1.8,11L47.5,54.8,38.9,72.9l-3.1,2.5,5.5-13.3a29.11,29.11,0,0,0,1.6-5l2.7-8.4a7.42,7.42,0,0,0,.5-2.5l1-8.4Z"/><polygon class="cls-2" points="44.4 20.8 45.8 29.4 42 50.2 35.3 64.3 32.9 66.3 36.7 55.3 41.7 36.8 44.4 20.8"/></g></g></svg>