<?xml version="1.0" encoding="utf-8"?>
<!-- Generator: Adobe Illustrator 20.1.0, SVG Export Plug-In . SVG Version: 6.00 Build 0)  -->
<svg version="1.1" id="Layer_1" xmlns="http://www.w3.org/2000/svg" xmlns:xlink="http://www.w3.org/1999/xlink" x="0px" y="0px"
	 viewBox="0 0 792 1224" style="enable-background:new 0 0 792 1224;" xml:space="preserve">
<style type="text/css">
	.st0{filter:url(#Adobe_OpacityMaskFilter);}
	.st1{mask:url(#SVGID_1_);}
	.st2{fill:#FFFFFF;}
	.st3{fill:#621720;}
	.st4{fill:none;stroke:#621720;stroke-width:9;stroke-miterlimit:10;}
</style>
<defs>
	<filter id="Adobe_OpacityMaskFilter" filterUnits="userSpaceOnUse" x="226.4" y="437.9" width="348.2" height="348.2">
		<feColorMatrix  type="matrix" values="1 0 0 0 0  0 1 0 0 0  0 0 1 0 0  0 0 0 1 0"/>
	</filter>
</defs>
<mask maskUnits="userSpaceOnUse" x="226.4" y="437.9" width="348.2" height="348.2" id="SVGID_1_">
	<g class="st0">
		
			<image style="overflow:visible;" width="1654" height="2339" xlink:href="../../../Ink Roller Texture 3.png"  transform="matrix(0.4152 0 0 0.4152 48.8535 108.8648)">
		</image>
		
			<image style="overflow:visible;" width="700" height="490" xlink:href="../../../Design Resources/Coarse Brown paper.jpg"  transform="matrix(1.048 0 0 1.0703 65.4722 323.3757)">
		</image>
	</g>
</mask>
<g class="st1">
	<g>
		<path class="st2" d="M365.5,734.8c1.5-3.2,2.7-6.6,4.6-9.5c5.8-8.8,12-17.3,17.9-26c2.6-3.8,4.7-7.9,7-11.8
			c3.9-6.5,8.3-12.7,11.5-19.5c5.6-11.8,8.6-24.7,17.1-35.3c3.5-4.4,6.6-9.4,8.6-14.6c4.7-12.6,8.7-25.5,12.9-38.2
			c3.8-11.7,7.5-23.4,11.4-35.1c4.4-13.2,5.8-26.7,4.9-40.5c-1,4.2-0.9,8.6-2.2,12.7c-5,16.3-10.2,32.5-15.9,48.6
			c-3.4,9.8-8.3,19.1-11.6,28.9c-4,11.8-7.2,23.9-15,34.3c-3.6,4.8-6.4,10.2-9.1,15.5c-5.4,10.8-6.6,23.2-15.2,33
			c-3.4,3.8-5.3,8.9-7.6,13.5c-3.1,6.1-6,12.3-9,18.4C371.7,717.5,364,724.4,365.5,734.8z M410.5,494c-0.7,2.2-1.7,4-1.6,5.8
			c0.4,18.6-8.4,35.2-13.8,52.5c-2.8,9.1-7.2,17.9-9.5,27.2c-2.3,9.3-6,17.8-11,26c-3.2,5.3-5.9,10.9-8.4,16.5
			c-3.8,8.6-7.3,17.3-11,25.9c-1.7,3.9-3.8,7.5-5.5,11.4c-2.3,5-4.3,10.1-6.7,15.1c-3.1,6.3-8.1,12-7,20.5c2-4,3.3-7.2,5-10.1
			c9.6-16.3,19.7-32.5,28.9-49c4.9-8.7,8.2-18.2,12.4-27.3c2-4.4,5.1-8.4,6.7-12.9c3.5-10.2,6.4-20.5,9.3-30.9
			C404.5,541.7,414.2,519.2,410.5,494z M428.1,723.6c0.6,0.3,1.3,0.7,1.9,1c2.9-4.9,5.7-9.9,8.7-14.8c2.9-4.6,6.2-9,9-13.7
			c4.7-8,9.4-16,13.7-24.1c1.9-3.6,3-7.5,4.6-11.2c2.5-5.8,5.1-11.6,7.7-17.4c3.7-8.2,8.1-16.3,11-24.7c5.9-17.7,11-35.6,16.2-53.5
			c3.7-12.9,4.8-26.7,2.9-33.6c-0.3,0.9-0.8,1.6-0.8,2.3c-0.5,17.7-9,33.6-14.2,50.2c-2.9,9.3-6.4,18.5-9.8,27.7
			c-2.6,7-5.5,13.9-8.6,20.7c-2,4.2-5.1,7.9-7,12.1c-4.5,10.4-8.4,21-13,31.4c-4.2,9.6-9.1,19-13.5,28.5
			C433.8,710.8,431,717.2,428.1,723.6z M292.2,677.7c1.8-3.5,3.1-6.7,4.8-9.6c9-15.6,18.4-30.9,27.1-46.7
			c4.9-8.9,8.5-18.5,12.6-27.8c2.1-4.7,4.3-9.5,5.8-14.4c4.4-14.5,8.5-29,12.9-43.5c4.1-13.4,5.9-27,5.2-40.8c-0.6,1-1,2.1-1.3,3.2
			c-4.6,15.8-9.1,31.6-13.9,47.3c-1.8,5.8-4.3,11.5-6.3,17.3c-2.5,7.3-3,15.7-7.4,21.7c-10.8,14.7-12.4,32.7-21.6,47.9
			c-4.6,7.7-7.9,16.1-11.5,24.3C295.7,663.2,289.9,669,292.2,677.7z"/>
		<path class="st3" d="M325.4,721.5c-1.5-10.4,6.2-17.3,10.3-25.6c3-6.1,5.9-12.3,9-18.4c2.4-4.6,4.3-9.7,7.6-13.5
			c8.5-9.7,9.8-22.1,15.2-33c2.6-5.3,5.5-10.7,9.1-15.5c7.9-10.5,11-22.5,15-34.3c3.3-9.8,8.2-19.1,11.6-28.9
			c5.7-16.1,10.9-32.3,15.9-48.6c1.3-4.1,1.2-8.5,2.2-12.7c0.9,13.7-0.5,27.2-4.9,40.5c-3.9,11.7-7.5,23.4-11.4,35.1
			c-4.2,12.8-8.2,25.6-12.9,38.2c-1.9,5.2-5.1,10.2-8.6,14.6c-8.5,10.7-11.5,23.5-17.1,35.3c-3.2,6.8-7.6,13-11.5,19.5
			c-2.3,3.9-4.5,8-7,11.8c-5.9,8.7-12.1,17.2-17.9,26C328.1,714.9,327,718.3,325.4,721.5z"/>
		<path class="st3" d="M460.5,521.6c3.7,25.2-6,47.7-12.4,70.7c-2.9,10.3-5.8,20.7-9.3,30.9c-1.5,4.5-4.6,8.5-6.7,12.9
			c-4.2,9.1-7.5,18.6-12.4,27.3c-9.2,16.5-19.3,32.7-28.9,49c-1.7,2.9-3.1,6.1-5,10.1c-1.1-8.6,4-14.3,7-20.5
			c2.4-5,4.4-10.1,6.7-15.1c1.8-3.8,3.9-7.5,5.5-11.4c3.7-8.6,7.2-17.3,11-25.9c2.5-5.6,5.2-11.2,8.4-16.5c5-8.2,8.7-16.7,11-26
			c2.3-9.2,6.7-18,9.5-27.2c5.4-17.3,14.2-33.9,13.8-52.5C458.9,525.6,459.9,523.8,460.5,521.6z"/>
		<path class="st3" d="M421.8,724c2.5-5.1,4.9-10.1,7.4-15.2c3.8-7.5,7.9-15,11.5-22.6c3.9-8.2,7.2-16.7,11.1-24.9
			c1.6-3.4,4.3-6.3,5.9-9.7c2.7-5.4,5.1-10.9,7.4-16.4c3-7.3,5.9-14.6,8.5-22c4.5-13.2,11.8-25.7,12.3-39.7c0-0.6,0.4-1.1,0.7-1.9
			c1.5,5.4,0.5,16.3-2.8,26.5c-4.5,14.2-9,28.4-14,42.4c-2.4,6.7-6.2,13.1-9.4,19.6c-2.2,4.6-4.4,9.2-6.6,13.8
			c-1.4,3-2.3,6.1-3.9,8.9c-3.7,6.5-7.6,12.9-11.7,19.2c-2.4,3.7-5.2,7.2-7.6,10.9c-2.6,3.9-4.9,7.8-7.4,11.8
			C422.8,724.5,422.3,724.2,421.8,724z"/>
		<path class="st3" d="M303.2,677.6c-2.4-8.8,3.5-14.5,6.3-21.1c3.5-8.2,6.8-16.6,11.5-24.3c9.2-15.2,10.9-33.1,21.6-47.9
			c4.4-6,4.9-14.4,7.4-21.7c2-5.8,4.5-11.5,6.3-17.3c4.8-15.7,9.3-31.6,13.9-47.3c0.3-1.1,0.7-2.2,1.3-3.2
			c0.6,13.8-1.1,27.4-5.2,40.8c-4.4,14.5-8.4,29.1-12.9,43.5c-1.5,4.9-3.7,9.6-5.8,14.4c-4.1,9.3-7.7,18.8-12.6,27.8
			c-8.6,15.7-18,31.1-27.1,46.7C306.3,670.9,305,674,303.2,677.6z"/>
	</g>
	<circle class="st4" cx="400.5" cy="612" r="169.6"/>
</g>
</svg>
